:FULLY-SPECIFIED
:FORCE-ALL-JOINTS-BE-3DOF
:DEGREES
815
root 2.15592 16.617 22.7622 3.24584 3.86318 -4.51807
lfemur -40.6108 -1.50781 -5.88306
ltibia 36.6292 -0 0
lfoot -9.67421 -4.31471 0.231213
ltoes 8.10486 -0 0
rfemur -2.75314 1.07594 17.658
rtibia 35.5556 -0 0
rfoot -16.5627 -5.21651 0.77388
rtoes -22.3406 0 0
lowerback 1.07962 5.30476 4.78071
upperback -0.190675 7.11512 -0.291459
thorax -0.239118 3.55476 -3.03474
lowerneck -6.09039 -2.29583 2.54895
upperneck 0.576819 -3.27723 1.26032
head 1.18427 -1.59473 -0.143858
lclavicle -1.0297e-013 -9.14409e-015 0
lhumerus -54.6677 -6.12938 91.0584
lradius 56.4287 -0 0
lwrist 22.0876 0 0
lhand -10.8463 4.49936 -0.0245981
lfingers 7.12502 -0 0
lthumb 15.1703 33.9357 -0.0171584
rclavicle -1.0297e-013 -9.14409e-015 0
rhumerus -32.8918 42.5938 -108.869
rradius 66.4913 -0 0
rwrist 2.49458 0 0
rhand -19.7014 -27.6129 -0.0956665
rfingers 7.12502 -0 0
rthumb 6.62956 -57.4822 -0.0991608
816
root 2.20986 16.6006 22.9375 3.07939 3.03618 -4.57803
lfemur -40.2908 -1.6528 -5.78911
ltibia 36.3303 -0 0
lfoot -9.19137 -4.3192 0.241945
ltoes 7.46637 -0 0
rfemur -2.22453 0.957147 17.1299
rtibia 36.5657 -0 0
rfoot -15.3885 -4.58535 0.84916
rtoes -22.9175 0 0
lowerback 0.843427 5.39565 4.76403
upperback -0.257934 7.2233 -0.198166
thorax -0.191137 3.60978 -2.91789
lowerneck -6.07942 -2.30363 2.61336
upperneck 0.92777 -3.29962 1.22023
head 1.29508 -1.60071 -0.172795
lclavicle -1.0297e-013 -9.14409e-015 0
lhumerus -54.8278 -5.80312 90.8382
lradius 56.0913 -0 0
lwrist 21.8296 0 0
lhand -10.5954 4.60763 -0.0244991
lfingers 7.12502 -0 0
lthumb 15.4125 34.0293 -0.0152468
rclavicle -1.0297e-013 -9.14409e-015 0
rhumerus -32.8434 42.2321 -107.95
rradius 66.125 -0 0
rwrist 2.57623 0 0
rhand -20.1962 -27.3747 -0.109136
rfingers 7.12502 -0 0
rthumb 6.15226 -57.2617 -0.114105
817
root 2.2638 16.5842 23.1128 2.90061 2.27702 -4.6419
lfemur -39.9534 -1.77567 -5.70843
ltibia 36.0387 -0 0
lfoot -8.70594 -4.29225 0.24816
ltoes 6.82128 -0 0
rfemur -1.68887 0.802017 16.5807
rtibia 37.6412 -0 0
rfoot -14.1668 -3.96268 0.91498
rtoes -23.5188 0 0
lowerback 0.59772 5.48918 4.73808
upperback -0.32889 7.33471 -0.105597
thorax -0.142685 3.66631 -2.79621
lowerneck -6.06726 -2.31763 2.6761
upperneck 1.29031 -3.3302 1.18369
head 1.40984 -1.6105 -0.200611
lclavicle -1.0297e-013 -9.14409e-015 0
lhumerus -54.9957 -5.47132 90.6114
lradius 55.7566 -0 0
lwrist 21.5474 0 0
lhand -10.3424 4.70743 -0.0238229
lfingers 7.12502 -0 0
lthumb 15.6566 34.1143 -0.0127186
rclavicle -1.0297e-013 -9.14409e-015 0
rhumerus -32.7955 41.859 -106.995
rradius 65.7582 -0 0
rwrist 2.6667 0 0
rhand -20.7133 -27.1167 -0.120936
rfingers 7.12502 -0 0
rthumb 5.65359 -57.0219 -0.127647
818
root 2.31774 16.5678 23.2881 2.71012 1.58284 -4.70847
lfemur -39.5994 -1.87755 -5.64112
ltibia 35.7549 -0 0
lfoot -8.21991 -4.23814 0.24987
ltoes 6.17321 -0 0
rfemur -1.15227 0.613476 16.0138
rtibia 38.7723 -0 0
rfoot -12.9054 -3.34849 0.970465
rtoes -24.1406 0 0
lowerback 0.345144 5.5842 4.70306
upperback -0.402588 7.44802 -0.0141377
thorax -0.094138 3.72367 -2.67029
lowerneck -6.05418 -2.33723 2.7371
upperneck 1.66237 -3.36816 1.15059
head 1.52788 -1.62372 -0.227269
lclavicle -1.0297e-013 -9.14409e-015 0
lhumerus -55.169 -5.13726 90.3787
lradius 55.4259 -0 0
lwrist 21.2444 0 0
lhand -10.0869 4.7992 -0.0226209
lfingers 7.12502 -0 0
lthumb 15.9031 34.1907 -0.00966777
rclavicle -1.0297e-013 -9.14409e-015 0
rhumerus -32.7485 41.473 -106.007
rradius 65.3914 -0 0
rwrist 2.76498 0 0
rhand -21.247 -26.8414 -0.130589
rfingers 7.12502 -0 0
rthumb 5.1388 -56.7655 -0.1393
819
root 2.37168 16.5514 23.4634 2.50849 0.950766 -4.77655
lfemur -39.2295 -1.95958 -5.58727
ltibia 35.4794 -0 0
lfoot -7.73529 -4.16115 0.247161
ltoes 5.52579 -0 0
rfemur -0.620908 0.394255 15.4328
rtibia 39.9492 -0 0
rfoot -11.6121 -2.74281 1.01492
rtoes -24.7795 0 0
lowerback 0.0883536 5.67951 4.65918
upperback -0.478075 7.5619 0.0758343
thorax -0.0458769 3.78117 -2.5407
lowerneck -6.04044 -2.36183 2.79631
upperneck 2.0419 -3.41268 1.12084
head 1.64856 -1.64 -0.252733
lclavicle -1.0297e-013 -9.14409e-015 0
lhumerus -55.3453 -4.80425 90.141
lradius 55.1004 -0 0
lwrist 20.924 0 0
lhand -9.82864 4.88334 -0.0209482
lfingers 7.12502 -0 0
lthumb 16.1523 34.2589 -0.00619091
rclavicle -1.0297e-013 -9.14409e-015 0
rhumerus -32.7032 41.0726 -104.988
rradius 65.025 -0 0
rwrist 2.87006 0 0
rhand -21.7919 -26.5517 -0.137705
rfingers 7.12502 -0 0
rthumb 4.61317 -56.4947 -0.148656
820
root 2.42562 16.535 23.6387 2.29626 0.377932 -4.845
lfemur -38.8447 -2.02287 -5.54698
ltibia 35.2126 -0 0
lfoot -7.25406 -4.06553 0.240195
ltoes 4.88265 -0 0
rfemur -0.100997 0.146885 14.8414
rtibia 41.1622 -0 0
rfoot -10.2947 -2.14573 1.04784
rtoes -25.4316 0 0
lowerback -0.169992 5.77396 4.6067
upperback -0.554405 7.67499 0.163947
thorax 0.0017137 3.83812 -2.408
lowerneck -6.02628 -2.39085 2.85363
upperneck 2.42684 -3.46297 1.09433
head 1.77122 -1.65897 -0.276964
lclavicle -1.0297e-013 -9.14409e-015 0
lhumerus -55.5222 -4.47554 89.8993
lradius 54.7817 -0 0
lwrist 20.5897 0 0
lhand -9.56706 4.9603 -0.0188644
lfingers 7.12502 -0 0
lthumb 16.4047 34.3193 -0.00238673
rclavicle -1.0297e-013 -9.14409e-015 0
rhumerus -32.66 40.6562 -103.942
rradius 64.6594 -0 0
rwrist 2.98093 0 0
rhand -22.3425 -26.2503 -0.14199
rfingers 7.12502 -0 0
rthumb 4.08197 -56.2122 -0.155389
821
root 2.47956 16.5186 23.814 2.07398 -0.138512 -4.91267
lfemur -38.4458 -2.06854 -5.52033
ltibia 34.955 -0 0
lfoot -6.77823 -3.95557 0.229216
ltoes 4.2474 -0 0
rfemur 0.401185 -0.126313 14.2432
rtibia 42.4014 -0 0
rfoot -8.9611 -1.55739 1.06888
rtoes -26.0934 0 0
lowerback -0.42723 5.86638 4.54585
upperback -0.630635 7.78596 0.249835
thorax 0.0482447 3.89386 -2.27278
lowerneck -6.01197 -2.42369 2.90901
upperneck 2.81511 -3.51822 1.07101
head 1.8952 -1.68026 -0.299921
lclavicle -1.0297e-013 -9.14409e-015 0
lhumerus -55.6972 -4.15438 89.6545
lradius 54.4709 -0 0
lwrist 20.2446 0 0
lhand -9.3018 5.03048 -0.0164323
lfingers 7.12502 -0 0
lthumb 16.6605 34.372 0.00164399
rclavicle -1.0297e-013 -9.14409e-015 0
rhumerus -32.6199 40.2225 -102.87
rradius 64.2952 -0 0
rwrist 3.09656 0 0
rhand -22.8934 -25.94 -0.143255
rfingers 7.12502 -0 0
rthumb 3.55048 -55.9202 -0.159265
822
root 2.5335 16.5022 23.9893 1.84217 -0.601409 -4.97846
lfemur -38.0336 -2.09767 -5.50742
ltibia 34.7069 -0 0
lfoot -6.3098 -3.8355 0.214551
ltoes 3.62367 -0 0
rfemur 0.879288 -0.423227 13.6421
rtibia 43.6572 -0 0
rfoot -7.61908 -0.977938 1.07787
rtoes -26.761 0 0
lowerback -0.68069 5.95561 4.47692
upperback -0.705827 7.89344 0.333139
thorax 0.0933223 3.9477 -2.13562
lowerneck -5.99775 -2.45975 2.96237
upperneck 3.20467 -3.57761 1.0508
head 2.01986 -1.70349 -0.321561
lclavicle -1.0297e-013 -9.14409e-015 0
lhumerus -55.8678 -3.84398 89.4076
lradius 54.1694 -0 0
lwrist 19.8924 0 0
lhand -9.03244 5.0943 -0.0137186
lfingers 7.12502 -0 0
lthumb 16.9202 34.4173 0.00579858
rclavicle -1.0297e-013 -9.14409e-015 0
rhumerus -32.5834 39.7699 -101.777
rradius 63.9328 -0 0
rwrist 3.21596 0 0
rhand -23.4391 -25.6234 -0.14142
rfingers 7.12502 -0 0
rthumb 3.024 -55.6214 -0.160151
823
root 2.58743 16.4857 24.1645 1.60135 -1.01359 -5.04126
lfemur -37.6091 -2.11134 -5.50834
ltibia 34.4688 -0 0
lfoot -5.85076 -3.70958 0.196607
ltoes 3.01509 -0 0
rfemur 1.32688 -0.741955 13.0421
rtibia 44.9198 -0 0
rfoot -6.2765 -0.407549 1.0748
rtoes -27.431 0 0
lowerback -0.927697 6.0405 4.40019
upperback -0.779048 7.9961 0.413507
thorax 0.136548 3.99897 -1.9971
lowerneck -5.98389 -2.49843 3.01364
upperneck 3.59342 -3.64036 1.03366
head 2.14453 -1.72829 -0.341841
lclavicle -1.0297e-013 -9.14409e-015 0
lhumerus -56.0314 -3.54752 89.1597
lradius 53.8786 -0 0
lwrist 19.5363 0 0
lhand -8.75857 5.1522 -0.0107935
lfingers 7.12502 -0 0
lthumb 17.1842 34.4556 0.00997269
rclavicle -1.0297e-013 -9.14409e-015 0
rhumerus -32.5514 39.2969 -100.665
rradius 63.5726 -0 0
rwrist 3.33809 0 0
rhand -23.9741 -25.3033 -0.136521
rfingers 7.12502 -0 0
rthumb 2.5078 -55.3182 -0.158013
824
root 2.64137 16.4693 24.3398 1.35205 -1.37787 -5.09999
lfemur -37.173 -2.11062 -5.52319
ltibia 34.2412 -0 0
lfoot -5.40312 -3.58205 0.175872
ltoes 2.42527 -0 0
rfemur 1.73745 -1.08079 12.4475
rtibia 46.1793 -0 0
rfoot -4.94118 0.153602 1.05982
rtoes -28.0995 0 0
lowerback -1.16557 6.11992 4.31598
upperback -0.849366 8.09258 0.490592
thorax 0.177519 4.04699 -1.8578
lowerneck -5.97061 -2.53914 3.06276
upperneck 3.97932 -3.70566 1.01956
head 2.26856 -1.7543 -0.360713
lclavicle -1.0297e-013 -9.14409e-015 0
lhumerus -56.1856 -3.26815 88.9118
lradius 53.5998 -0 0
lwrist 19.1798 0 0
lhand -8.47979 5.20458 -0.00773055
lfingers 7.12502 -0 0
lthumb 17.4528 34.4872 0.0140604
rclavicle -1.0297e-013 -9.14409e-015 0
rhumerus -32.5246 38.8022 -99.5369
rradius 63.2152 -0 0
rwrist 3.46196 0 0
rhand -24.4928 -24.9825 -0.128706
rfingers 7.12502 -0 0
rthumb 2.00717 -55.0131 -0.15292
825
root 2.69531 16.4529 24.5151 1.09478 -1.69705 -5.15355
lfemur -36.7263 -2.09657 -5.55208
ltibia 34.0244 -0 0
lfoot -4.96886 -3.45713 0.152909
ltoes 1.85786 -0 0
rfemur 2.10439 -1.43824 11.8623
rtibia 47.4261 -0 0
rfoot -3.62095 0.705345 1.03323
rtoes -28.7629 0 0
lowerback -1.39161 6.19275 4.22461
upperback -0.915855 8.1815 0.564053
thorax 0.215828 4.09111 -1.71831
lowerneck -5.95818 -2.58129 3.10965
upperneck 4.36027 -3.7727 1.00849
head 2.3913 -1.78114 -0.378129
lclavicle -1.0297e-013 -9.14409e-015 0
lhumerus -56.3276 -3.009 88.6651
lradius 53.3343 -0 0
lwrist 18.8262 0 0
lhand -8.19569 5.25187 -0.00460672
lfingers 7.12502 -0 0
lthumb 17.7265 34.5122 0.0179544
rclavicle -1.0297e-013 -9.14409e-015 0
rhumerus -32.5038 38.2843 -98.3952
rradius 62.861 -0 0
rwrist 3.58655 0 0
rhand -24.9899 -24.6636 -0.118235
rfingers 7.12502 -0 0
rthumb 1.52739 -54.7084 -0.145042
